<svg width="54" height="53" viewBox="0 0 54 53" fill="none" xmlns="http://www.w3.org/2000/svg"><g clip-path="url(#clip0_94_4063)"><path d="M3.41689 3.69198C-0.852608 8.12648 0.0208189 12.8348 0.0208189 27.1485C0.0208189 39.0332 -2.05291 50.9477 8.80072 53.7523C12.1904 54.6245 42.2202 54.6245 45.6056 53.7523C50.1245 52.585 53.8008 48.9209 54.308 42.5307C54.3781 41.6394 54.3781 12.683 54.308 11.7726C53.7774 4.96641 49.5822 1.04231 44.0604 0.248581C42.7901 0.060759 42.5354 0.00664085 36.0414 -0.00503168C13.0097 0.00664085 7.96125 -1.01948 3.41689 3.69198Z" fill="url(#paint0_linear_94_4063)"/><path d="M12.9553 32.5241L15.0573 22.7299C14.4134 22.9928 13.914 23.3871 13.5589 23.9129C13.2038 24.4386 13.0263 25.0934 13.0263 25.8773C13.0263 26.0604 13.0358 26.2106 13.0547 26.328C13.0784 26.4406 13.102 26.5322 13.1257 26.6026C13.1494 26.6683 13.1707 26.7199 13.1896 26.7575C13.2133 26.795 13.2251 26.8279 13.2251 26.856C12.9742 26.856 12.7517 26.8326 12.5576 26.7856C12.3635 26.734 12.2002 26.6542 12.0676 26.5462C11.9398 26.4383 11.8404 26.2951 11.7693 26.1167C11.7031 25.9384 11.6699 25.7177 11.6699 25.4549C11.6699 25.1357 11.7386 24.8212 11.8759 24.5114C12.0179 24.2015 12.2096 23.9082 12.4511 23.6312C12.6973 23.3543 12.9837 23.0984 13.3103 22.8637C13.6417 22.629 13.9945 22.4272 14.3685 22.2582C14.7472 22.0845 15.1401 21.9507 15.5473 21.8568C15.9592 21.7583 16.3687 21.709 16.7758 21.709C16.8847 21.709 16.9841 21.7113 17.0741 21.716C17.1688 21.7207 17.2635 21.7278 17.3582 21.7371L15.0431 32.5241H12.9553Z" fill="#fff"/><path d="M25.4285 29.9401C25.2249 30.5315 25.0048 31.0033 24.7681 31.3553C24.5361 31.7074 24.2994 31.9773 24.0579 32.165C23.8212 32.3481 23.5869 32.4678 23.3549 32.5241C23.1276 32.5805 22.917 32.6086 22.7228 32.6086C22.4009 32.6086 22.1311 32.564 21.9133 32.4749C21.6955 32.381 21.5203 32.2589 21.3878 32.1087C21.2552 31.9538 21.1582 31.7801 21.0966 31.5877C21.0398 31.3905 21.0114 31.1887 21.0114 30.9821C21.0114 30.738 21.0445 30.4541 21.1108 30.1302C21.1818 29.8016 21.2576 29.466 21.3381 29.1233C21.4186 28.7806 21.4919 28.4497 21.5582 28.1305C21.6292 27.8113 21.6647 27.5367 21.6647 27.3067C21.6647 26.8138 21.4896 26.5674 21.1392 26.5674C21.0067 26.5674 20.8836 26.6026 20.77 26.673C20.6563 26.7434 20.5522 26.8396 20.4575 26.9617C20.3628 27.079 20.2776 27.2198 20.2018 27.3841C20.1261 27.5437 20.0598 27.7151 20.003 27.8981L19.0159 32.5241H16.921L18.462 25.314H20.5569L20.4007 26.0604C20.5569 25.8867 20.7108 25.7482 20.8623 25.645C21.0185 25.537 21.17 25.4549 21.3168 25.3985C21.4635 25.3422 21.6008 25.3047 21.7287 25.2859C21.8612 25.2671 21.9843 25.2577 22.0979 25.2577C22.3299 25.2577 22.5453 25.2882 22.7442 25.3492C22.943 25.4103 23.1134 25.5065 23.2555 25.6379C23.4022 25.7694 23.5158 25.9384 23.5963 26.1449C23.6768 26.3514 23.717 26.5979 23.717 26.8842C23.717 27.0767 23.6981 27.2856 23.6602 27.5109C23.6271 27.7315 23.5845 27.9592 23.5324 28.1939C23.4803 28.4239 23.4235 28.6539 23.362 28.8839C23.3052 29.1139 23.2507 29.3345 23.1986 29.5458C23.1466 29.757 23.1016 29.9541 23.0637 30.1372C23.0306 30.3156 23.014 30.4728 23.014 30.609C23.014 30.7873 23.0542 30.9329 23.1347 31.0455C23.2199 31.1582 23.3738 31.2145 23.5963 31.2145C23.7526 31.2145 23.8898 31.184 24.0082 31.123C24.1266 31.0619 24.2331 30.9751 24.3278 30.8624C24.4225 30.7498 24.5077 30.616 24.5834 30.4611C24.6639 30.3015 24.742 30.1278 24.8178 29.9401H25.4285Z" fill="#fff"/><path d="M31.4181 29.9401C31.0394 30.3766 30.6583 30.738 30.2748 31.0244C29.896 31.306 29.5362 31.5454 29.1954 31.7426C29.0439 31.9022 28.8734 32.0383 28.6841 32.151C28.4994 32.2589 28.3053 32.3481 28.1017 32.4185C27.9029 32.4842 27.6993 32.5312 27.491 32.5594C27.2875 32.5922 27.0933 32.6086 26.9087 32.6086C26.5442 32.6086 26.227 32.5547 25.9571 32.4467C25.692 32.334 25.4719 32.1909 25.2967 32.0172C25.1215 31.8388 24.9937 31.6417 24.9132 31.4257C24.828 31.2051 24.7854 30.9845 24.7854 30.7639C24.7854 30.5949 24.8091 30.44 24.8564 30.2992C24.899 30.1536 24.9558 30.0245 25.0268 29.9119C25.0978 29.7992 25.1783 29.703 25.2683 29.6232C25.363 29.5387 25.46 29.473 25.5594 29.4261C25.9666 28.7032 26.3098 27.9897 26.5891 27.2856C26.8685 26.5767 27.1218 25.8656 27.349 25.1521L29.5007 24.8704C29.5291 25.4948 29.5552 26.0369 29.5788 26.4969C29.6072 26.9523 29.6333 27.3489 29.657 27.6869C29.6806 28.0202 29.7019 28.3042 29.7209 28.5389C29.7398 28.7736 29.7564 28.9825 29.7706 29.1655C29.7895 29.3439 29.8014 29.5082 29.8061 29.6584C29.8156 29.8039 29.8203 29.9565 29.8203 30.1161C29.8203 30.224 29.8156 30.3226 29.8061 30.4118C29.8014 30.501 29.7871 30.5855 29.7635 30.6653C29.9765 30.5432 30.1683 30.4235 30.3387 30.3062C30.5139 30.1841 30.6701 30.0621 30.8074 29.9401H31.4181ZM25.5594 30.4611C25.5594 30.7991 25.6257 31.0526 25.7583 31.2215C25.8956 31.3858 26.1252 31.468 26.4471 31.468C26.6081 31.468 26.7643 31.4469 26.9158 31.4046C27.0673 31.3577 27.2022 31.2826 27.3206 31.1793C27.4389 31.0713 27.5336 30.9329 27.6046 30.7639C27.6757 30.5949 27.7112 30.3836 27.7112 30.1302C27.7112 30.0081 27.7064 29.8908 27.697 29.7781C27.6922 29.6608 27.6851 29.5387 27.6757 29.412C27.6662 29.2805 27.652 29.135 27.6331 28.9754C27.6188 28.8158 27.5999 28.6304 27.5762 28.4192C27.5573 28.2079 27.536 27.9638 27.5123 27.6869C27.4887 27.4099 27.4626 27.0861 27.4342 26.7152C27.2875 27.1846 27.1146 27.64 26.9158 28.0812C26.717 28.5224 26.4968 28.9754 26.2554 29.4401C26.3501 29.4918 26.4282 29.5575 26.4897 29.6373C26.556 29.7171 26.5891 29.818 26.5891 29.9401C26.5891 30.0292 26.5749 30.1161 26.5465 30.2006C26.5181 30.2851 26.4755 30.3625 26.4187 30.4329C26.3619 30.4987 26.2933 30.5526 26.2128 30.5949C26.137 30.6324 26.0494 30.6512 25.95 30.6512C25.8695 30.6512 25.7938 30.6395 25.7228 30.616C25.6518 30.5925 25.5973 30.5409 25.5594 30.4611Z" fill="#fff"/><path d="M35.7389 29.9401C35.6016 30.3297 35.4477 30.6676 35.2773 30.954C35.1116 31.2403 34.9364 31.4821 34.7518 31.6792C34.5719 31.8764 34.3849 32.036 34.1908 32.158C34.0014 32.2801 33.8168 32.3739 33.6369 32.4397C33.457 32.5054 33.2842 32.55 33.1185 32.5734C32.9575 32.5969 32.8131 32.6086 32.6853 32.6086C32.4675 32.6086 32.2639 32.5758 32.0746 32.5101C31.8852 32.4443 31.7195 32.3411 31.5775 32.2003C31.4402 32.0594 31.3313 31.8811 31.2508 31.6651C31.1703 31.4492 31.1301 31.1887 31.1301 30.8836C31.1301 30.7521 31.1395 30.609 31.1585 30.4541C31.1774 30.2945 31.2058 30.1231 31.2437 29.9401L32.1172 25.8914H31.6343L31.755 25.314H32.2308L32.6711 23.3214L34.8228 23.0327L34.3257 25.314H35.1992L35.0856 25.8914H34.2121L33.2818 30.2147C33.2581 30.2945 33.2416 30.3743 33.2321 30.4541C33.2274 30.5292 33.225 30.6043 33.225 30.6794C33.225 30.8812 33.2723 31.022 33.367 31.1018C33.4617 31.1769 33.6108 31.2145 33.8144 31.2145C33.9564 31.2145 34.0937 31.184 34.2263 31.123C34.3636 31.0572 34.489 30.9681 34.6027 30.8554C34.7163 30.7427 34.8181 30.609 34.908 30.4541C34.998 30.2945 35.0714 30.1231 35.1282 29.9401H35.7389Z" fill="#fff"/><path d="M41.5084 30.2147C41.4847 30.2945 41.4681 30.3743 41.4587 30.4541C41.4492 30.5292 41.4445 30.6043 41.4445 30.6794C41.4445 30.8812 41.4918 31.022 41.5865 31.1018C41.6859 31.1769 41.8374 31.2145 42.041 31.2145C42.1073 31.2145 42.1664 31.2098 42.2185 31.2004C42.2706 31.191 42.3179 31.1746 42.3605 31.1511C42.2611 31.3999 42.1664 31.6158 42.0765 31.7989C41.9865 31.982 41.8871 32.1345 41.7782 32.2566C41.6693 32.3739 41.5439 32.4631 41.4018 32.5241C41.2646 32.5805 41.1012 32.6086 40.9118 32.6086C40.5094 32.6086 40.1851 32.4936 39.939 32.2636C39.6928 32.0289 39.5413 31.698 39.4845 31.2708C39.3756 31.4351 39.2477 31.5971 39.101 31.7567C38.959 31.9163 38.798 32.0594 38.6181 32.1862C38.4429 32.3129 38.2465 32.4162 38.0287 32.496C37.8109 32.5711 37.5742 32.6086 37.3185 32.6086C37.0676 32.6086 36.8262 32.5687 36.5942 32.4889C36.3622 32.4091 36.1563 32.2777 35.9764 32.0946C35.7965 31.9116 35.6521 31.6722 35.5432 31.3764C35.4343 31.0807 35.3798 30.7193 35.3798 30.2921C35.3798 29.9635 35.413 29.6115 35.4793 29.2359C35.5455 28.8604 35.6473 28.4849 35.7846 28.1094C35.9219 27.7338 36.0924 27.3747 36.2959 27.0321C36.5042 26.6847 36.7457 26.3796 37.0203 26.1167C37.2996 25.8492 37.6144 25.6379 37.9648 25.483C38.3151 25.3234 38.7009 25.2436 39.1223 25.2436C39.5342 25.2436 39.8324 25.314 40.0171 25.4549C40.2064 25.5957 40.3011 25.7694 40.3011 25.9759V26.0815L40.4574 25.314H42.5523L41.5084 30.2147ZM40.1662 26.6871C40.1662 26.6448 40.1567 26.5932 40.1378 26.5322C40.1189 26.4664 40.0857 26.4054 40.0384 26.3491C39.9958 26.2881 39.9366 26.2388 39.8608 26.2012C39.7851 26.159 39.688 26.1378 39.5697 26.1378C39.3661 26.1378 39.172 26.2036 38.9874 26.335C38.8075 26.4664 38.6418 26.6425 38.4903 26.8631C38.3388 27.079 38.2038 27.3255 38.0855 27.6024C37.9671 27.8794 37.8653 28.1657 37.7801 28.4614C37.6996 28.7525 37.6381 29.0411 37.5955 29.3275C37.5529 29.6091 37.5316 29.8626 37.5316 30.0879C37.5316 30.3649 37.5576 30.5784 37.6097 30.7287C37.6618 30.8789 37.7233 30.9915 37.7943 31.0666C37.8701 31.137 37.9506 31.1793 38.0358 31.1934C38.121 31.2075 38.1967 31.2145 38.263 31.2145C38.3719 31.2145 38.4855 31.1887 38.6039 31.137C38.727 31.0807 38.843 31.0009 38.9519 30.8976C39.0655 30.7897 39.1673 30.6559 39.2572 30.4963C39.3519 30.3367 39.4229 30.1513 39.4703 29.9401L40.1662 26.6871Z" fill="#fff"/></g><defs><linearGradient id="paint0_linear_94_4063" x1="3.72" y1="50.621" x2="54.204" y2="6.914" gradientUnits="userSpaceOnUse"><stop stop-color="#FD5"/><stop offset=".5" stop-color="#FF543E"/><stop offset="1" stop-color="#C837AB"/></linearGradient><clipPath id="clip0_94_4063"><rect x=".498" y=".09" width="53.408" height="52.318" rx="26.159" fill="#fff"/></clipPath></defs></svg>