<?xml version="1.0" encoding="UTF-8"?>
<svg id="a" data-name="Слой 1" xmlns="http://www.w3.org/2000/svg" viewBox="0 0 54 53">
  <defs>
    <style>
      .b {
        fill: #fff;
        fill-rule: evenodd;
      }

      .c {
        fill: red;
      }
    </style>
  </defs>
  <ellipse class="c" cx="27.2" cy="26.25" rx="26.7" ry="26.16"/>
  <path class="b" d="M42.29,16.28c.53,.52,.92,1.17,1.11,1.88,1.13,4.47,.87,11.53,.02,16.17-.2,.71-.58,1.36-1.11,1.88-.53,.52-1.2,.9-1.92,1.09-2.66,.71-13.38,.71-13.38,.71,0,0-10.72,0-13.38-.71-.73-.19-1.39-.57-1.92-1.09-.53-.52-.92-1.17-1.11-1.88-1.14-4.45-.83-11.51-.02-16.15,.2-.71,.58-1.36,1.11-1.88,.53-.52,1.2-.9,1.92-1.09,2.66-.71,13.38-.73,13.38-.73,0,0,10.72,0,13.38,.71,.73,.19,1.39,.57,1.92,1.09Zm-9.82,9.97l-8.89,5.04v-10.09l8.89,5.05Z"/>
</svg>